<svg xmlns="http://www.w3.org/2000/svg" width="32.19" height="27.688" viewBox="0 0 32.19 27.688">
  <metadata><?xpacket begin="﻿" id="W5M0MpCehiHzreSzNTczkc9d"?>
<x:xmpmeta xmlns:x="adobe:ns:meta/" x:xmptk="Adobe XMP Core 5.6-c138 79.159824, 2016/09/14-01:09:01        ">
   <rdf:RDF xmlns:rdf="http://www.w3.org/1999/02/22-rdf-syntax-ns#">
      <rdf:Description rdf:about=""/>
   </rdf:RDF>
</x:xmpmeta>
                                                                                                    
                                                                                                    
                                                                                                    
                                                                                                    
                                                                                                    
                                                                                                    
                                                                                                    
                                                                                                    
                                                                                                    
                                                                                                    
                                                                                                    
                                                                                                    
                                                                                                    
                                                                                                    
                                                                                                    
                                                                                                    
                                                                                                    
                                                                                                    
                                                                                                    
                                                                                                    
                           
<?xpacket end="w"?></metadata>
<defs>
    <style>
      .cls-1 {
        fill: #fff;
        fill-rule: evenodd;
      }
    </style>
  </defs>
  <path id="Stocks" class="cls-1" d="M1523.11,74.309l2.19,0.544,1.65-2.591-3.13-.778A1.457,1.457,0,1,0,1523.11,74.309Zm28.61,0.419-7.17,6.461-8.44-6.531a1.464,1.464,0,0,0-.55-0.263l-1.12-.279-1.65,2.591,1.77,0.439,9.16,7.091a1.471,1.471,0,0,0,1.88-.069l8.09-7.28A1.462,1.462,0,0,0,1551.72,74.728Zm-15.75-7.095,7.86,5.032a1.464,1.464,0,0,0,1.99-.4l8.09-11.648a1.455,1.455,0,0,0-.37-2.026,1.472,1.472,0,0,0-2.04.37l-7.28,10.489-7.91-5.062a1.477,1.477,0,0,0-1.11-.2,1.422,1.422,0,0,0-.91.642l-12.06,18.927a1.456,1.456,0,0,0,.45,2.01,1.441,1.441,0,0,0,.78.227,1.464,1.464,0,0,0,1.24-.676Z" transform="translate(-1522 -58.313)"/>
</svg>
