<svg xmlns="http://www.w3.org/2000/svg" width="267.438" height="73.094" viewBox="0 0 267.438 73.094"><defs><style>.cls-1{fill:#eccb34;fill-rule:evenodd}</style></defs><path class="cls-1" d="M70.479 16.472c1.345-.5 2.521-1.177 2.858-2.015.166-.842-.337-1.346-1.513-1.346a2.633 2.633 0 0 0-1.493.5 1.957 1.957 0 0 0-.69.848.951.951 0 0 0-.02.492 3.862 3.862 0 0 0 .858 1.521zm-6.387 8.878a2.644 2.644 0 0 0 1.516.362 8.989 8.989 0 0 0 3.023-.84l-1.848-3.193a36.7 36.7 0 0 0-.953.4 3.3 3.3 0 0 0-2.07 1.781 1.091 1.091 0 0 0 .332 1.49zM141.711 20l-2.016 3.7h2.354s.335-2.857.335-3.53c0-.843-.504-.675-.673-.171zm82.787-2.024a4.588 4.588 0 0 0-3.156.847c-1.848 1.344-2.854 3.36-1.848 4.7a2.08 2.08 0 0 0 1.614.911 5.19 5.19 0 0 0 3.427-1.08c1.679-1.176 2.351-3.192 1.513-4.536a2.234 2.234 0 0 0-1.55-.842zm-21.8.848c-1.848 1.343-2.855 3.36-2.014 4.7 1.007 1.345 3.19 1.009 5.038-.167 1.682-1.344 2.354-3.192 1.513-4.536-.845-1.175-2.859-1.175-4.541.003zm37.3-1.008c-.673-.337-.841-.672-1.345.336l-2.017 5.545c-.41.958-.151 1.358.416 1.291a1.687 1.687 0 0 0 .426-.116c1.847-.841 2.52-1.175 3.527-3.36a3.456 3.456 0 0 0-.419-3.246 1.633 1.633 0 0 0-.595-.45zm-84.5 21a6.273 6.273 0 0 0-5.712 3.7c-1.007 2.354 0 3.53 2.519 3.53a6.209 6.209 0 0 0 5.041-2.521h-2.027a2.964 2.964 0 0 1-2.52 1.345c-1.511 0-1.679-1.179-1.175-2.354a3.727 3.727 0 0 1 3.36-2.352c1.511 0 1.511.671 1.511 1.176h1.848c.337-1.013-.169-2.525-2.855-2.525zm13.943 0a6.485 6.485 0 0 0-6.048 3.7c-1.345 3.192 1.514 3.53 2.689 3.53a6.363 6.363 0 0 0 5.879-3.53c1.508-3.365-1.355-3.701-2.53-3.701zm.672 3.7a3.906 3.906 0 0 1-3.527 2.354c-1.01 0-2.185-.507-1.345-2.354a4 4 0 0 1 3.518-2.529c1.01 0 2.185.508 1.344 2.523zm14.449-3.7h-4.537l-3.024 6.888h1.848l1.176-2.686h1.848c1.3 0 1.358.246 1.032.951a7.182 7.182 0 0 0-.338.913 3.021 3.021 0 0 0-.19.822h2.267c-.337 0-.419-.5.084-1.51.506-1.344.337-1.514-.335-1.682a3.826 3.826 0 0 0 2.183-1.681c.159-.672.327-2.016-2.024-2.016zm0 2.185c-.337.672-.841.838-1.848.838h-2.195l.84-1.679h2.352c1.007-.001 1.007.503.841.84zm13.608-2.185h-4.034l-3.192 6.888h1.848l1.179-2.351h2.182a4.594 4.594 0 0 0 3.864-2.185c.494-1.344-.178-2.353-1.857-2.353zm0 2.185a1.907 1.907 0 0 1-2.017 1.175h-1.684l1.007-2.016h1.344c1.171-.001 1.506.167 1.34.84zm3.359 2.854a1.026 1.026 0 0 0 0 2.017 1.009 1.009 0 1 0-.01-2.018zm-103.992-.88h49.559v-.588H97.527v.59zm107.856-.59v.59h49.716v-.588h-49.726zM265.2 10.256c-3.865-1.175-11.423-1.848-16.128 2.018a8.5 8.5 0 0 0-5.71-2.689h-6.889a2.8 2.8 0 0 0-2.688 1.848l-.169.169c-3.7-3.193-10.75-3.023-16.3.84-.337.336-.672.5-1.009.839a.336.336 0 0 1-.166-.336c-3.026-4.367-9.912-5.208-16.129-1.176 1.008-2.184 1.177-3.361 1.345-3.526.167-.842-.841-1.345-2.185-1.345h-11.261a4.3 4.3 0 0 0-3.862 2.856c0 .167-.169.337-.169.5a1.012 1.012 0 0 0-1.176-.672h-5.378a4.985 4.985 0 0 0-3.023.841 1.818 1.818 0 0 0-1.848-.841h-4.872a1.8 1.8 0 0 0-1.007.336 8.164 8.164 0 0 0-2.352-.5c-1.681 0-9.073-.337-14.617 4.2v-1.01c0-2.856-7.727-3.192-9.912-.841.672-1.512-.167-1.512-1.342-1.512h-7.057c-1.01 0-1.848 2.353-1.848 2.353-.337-2.016-3.361-2.856-5.881-2.184a3.694 3.694 0 0 0-2.015-3.36c-3.53-1.178-10.08-1.849-14.952 1.342l2.015-5.207a2.028 2.028 0 0 0-1.68-3.192H84.928a5.362 5.362 0 0 0-4.872 3.529s-.672 3.36-1.847 3.192h-.2a10.391 10.391 0 0 0-3.162-.672 18.9 18.9 0 0 0-5.174.587l1.309-3.444A2.147 2.147 0 0 0 69.134.007H47.128a5.54 5.54 0 0 0-4.872 3.529s-11.424 30.407-12.6 30.239L10 33.608a5.315 5.315 0 0 0-4.7 3.36C-5.788 55.783.6 73.088 23.78 73.088c8.9 0 14.783-2.689 18.983-6.384 3.865 4.032 10.081 6.384 18.817 6.384 20.494 0 24.862-13.777 28.558-22.848l7.225-18.312c.167.167.335.167.5.337.838.839 9.071 4.031 15.119.167-.167.336 0 .672.84.672h7.057a1.23 1.23 0 0 0 1.343-1.008s4.032 3.362 8.4.841h4.534c.841 0 2.354 0 2.689-1.009 0 0 1.344-.839 1.344.167s.337.841 1.176.841h7.392l1.175-.505a5.249 5.249 0 0 0 1.01.672h5.207a6.242 6.242 0 0 0 2.354-.672.793.793 0 0 0 .838.841h5.881c2.015 0 2.352-.505 2.521-1.008a2.859 2.859 0 0 0 1.847 1.008h6.72a2.359 2.359 0 0 0 1.176-.673 1.1 1.1 0 0 0 1.175.5h6.889a1.253 1.253 0 0 0 1.51-1.008l2.521-6.887h2.351a7.625 7.625 0 0 0 1.176 4.7c3.53 5.038 12.432 4.367 18.482-.505a2.383 2.383 0 0 1 .5.674c2.855 4.2 9.072 4.535 14.953 1.847a2.336 2.336 0 0 0 2.351 1.345s6.048.168 8.4 0a10.479 10.479 0 0 0 4.369-1.512c.168.167.337.334.5.5.841.5 16.465 6.216 21.5-6.552 2.185-5.377-.166-5.881-.166-5.881a3.464 3.464 0 0 0 3.193-1.847c.679-1.335 2.864-6.71-1-7.719zM72.883 8.802c.373-.037.748-.059 1.12-.059a5.083 5.083 0 0 1 4.542 2.841 4.081 4.081 0 0 1 0 3.039 7.029 7.029 0 0 1-3.584 3.676 21.524 21.524 0 0 1-2.8 1.2l1.085 2.013.094.171c.838-.672 1.679-1.512 2.183-1.848a1.6 1.6 0 0 1 1.679-.672h3.193c1.009 0 1.009.505.672 1.009a16.863 16.863 0 0 1-5.207 5.713l2.014 3.526c.168.337.338.84-.335.84h-5.378a1.079 1.079 0 0 1-.838-.84 2.424 2.424 0 0 0-.672.337 17.782 17.782 0 0 1-2.156.65 16.488 16.488 0 0 1-4.732.359 12.743 12.743 0 0 1-2.384-.285c-3.267-.728-4.824-2.722-4.527-4.939a4.737 4.737 0 0 1 .191-.825 8.618 8.618 0 0 1 2.326-3.921 12.866 12.866 0 0 1 4.728-2.633h.166c-.837-1.008-.672-2.184 0-3.864.768-2.613 4.628-5.083 8.62-5.488zm-37.927 57.7a24.755 24.755 0 0 1-11.682 2.718 28.587 28.587 0 0 1-4-.268 22.016 22.016 0 0 1-4.812-1.213 16.311 16.311 0 0 1-6.515-4.4c-4.978-5.63-5.178-14.552.037-23.352a4.1 4.1 0 0 1 3.7-2.519h14.113a1.579 1.579 0 0 1 1.345 2.352c-1.513 4.2-2.689 7.054-3.026 8.064a7.325 7.325 0 0 0-.575 2.8 1.474 1.474 0 0 0 1.415 1.4c2.521.168 2.856-1.01 3.865-3.528.777-1.781 7.964-19.759 12.731-31.709 2.434-6.1 4.235-10.627 4.235-10.627a4.535 4.535 0 0 1 2.749-2.488 3.539 3.539 0 0 1 1.116-.2h14.615a1.714 1.714 0 0 1 1.345 2.519l-1.116 2.851a7.032 7.032 0 0 0-2.58 2.861 9.576 9.576 0 0 0-.5 4.368c-5.712 2.185-6.047 4.872-7.223 7.392a6.286 6.286 0 0 0 1.773 7.17l-2.468 6.3h-3.066c-1.33 0-3.934.483-5.277 2.328-4.583 7.73-5.407 14.072-2.712 21.015a24.584 24.584 0 0 1-7.487 6.168zM97.841 19.41L85.769 50.239c-1.958 4.73-5.583 11.913-12.772 15.952a23.23 23.23 0 0 1-6.841 2.513 26.575 26.575 0 0 1-3.764.472 30.77 30.77 0 0 1-1.652.045 26.313 26.313 0 0 1-6.932-.868 16.1 16.1 0 0 1-10.176-7.547h.006c-3-7.059-2.331-13.142 2.3-20.96 1.1-1.5 3.338-1.9 4.49-1.9h13.939a1.736 1.736 0 0 1 .237 1.881c-1.513 4.2-2.688 7.054-3.023 8.064s-1.513 3.862.838 4.2a.129.129 0 0 1 .03 0c2.493.155 2.83-1.021 3.835-3.53.458-1.046 3.119-7.668 6.207-15.376l.033-.081h8.712c1.008 0 .672-.672.335-1.176l-2.52-5.376a25.583 25.583 0 0 0 5.713-7.559c.337-.672.337-1.345-1.008-1.345h-3.7c-1.009 0 .5-.5 2.015-4.368a3.965 3.965 0 0 0-.202-3.593l1.382-3.467a4.5 4.5 0 0 1 3.862-2.687h14.618a1.716 1.716 0 0 1 1.344 2.521zm14.928 9.039a10.16 10.16 0 0 1-6.512 2.156 14.541 14.541 0 0 1-5.365-1.029c-.5-.336-.5-.842-.334-1.681.334-.673 1.51-3.36 1.679-3.865a.752.752 0 0 1 1.344-.334 9.1 9.1 0 0 0 2.352 1.175 2.573 2.573 0 0 0 3.024-.672c.841-1.176-.506-1.512-1.679-1.848-2.355-.672-4.2-2.521-2.69-6.72 2.147-6.582 8.8-7.191 13.111-6.5a15.143 15.143 0 0 1 2.008.452c1.85.841-.335 4.368-.838 5.376a1.7 1.7 0 0 1-2.352.84c-.451-.3-1.169-.464-1.916-.854-.089-.047-.178-.1-.27-.154-.671-.334-2.015-.5-2.519.5-.672.84-.166 1.343 1.009 1.679.112.029.337.063.634.122 1.205.242 3.516.926 3.475 3.545zm11.475.622c-.082-.359-.178-.772-.273-1.215-.491-2.238-1.076-5.169-1.076-5.169l-2.52 6.888a.956.956 0 0 1-1.176.671h-4.03c-1.01 0-.506-.84-.337-1.175.337-.5 6.049-14.784 6.049-14.784 1.007-2.184 6.048-2.015 6.382.336l.632 5.822.041.394L129 18.356l1.959-4.572c.336-.669.338-1 1-1.007h3.539c.842 0 1.68 0 1.176 1.175l-6.385 15.12c-.841 2.351-5.546 2.182-6.05-.001zm22.175 1.175h-4.2c-.672 0-1.008.168-1.008-.67v-1.681h-4.2l-.84 1.681a1.037 1.037 0 0 1-1.176.67h-4.034c-1.176.169-.5-.67-.168-1.175.168-.5 9.914-14.616 9.914-14.616 1.176-2.352 6.382-2.183 6.382.168l.169 14.953c-.003.502-.172.67-.844.67zm10.364-.042a2.034 2.034 0 0 1-.449.042H152.3a4.591 4.591 0 0 1-3.538-1.663c-1.561-2-1.185-5.335-.492-7.408a12.234 12.234 0 0 1 8.839-8.372 21.323 21.323 0 0 1 6.111-.7c1.009.169 1.513.337 1.176 1.008a22.315 22.315 0 0 1-1.848 4.368 1.3 1.3 0 0 1-1.68.5c-3.527-.337-4.871.5-6.385 2.856-2.686 4.536 3.362 3.863 4.2 4.033.42 0 .709.066.741.4zm17.525-9.2l.841 8.064c.334.673.168 1.175-.5 1.175h-4.38c-.673 0-.673-.335-1.007-1.006l-.3-1.5-.875-4.377c-.335-1.176-.5-1.176-1.006-.168-.169.672-2.521 6.552-2.521 6.552a.671.671 0 0 1-.841.5h-4.031c-.5 0-.84-.335-.5-1.175.674-1.486 4.279-10.24 5.753-13.969l1.573-2.969a.924.924 0 0 1 .235-.03h3.861c.5 0 1.01.337.673 1.344s-2.687 7.056-2.687 7.056l6.72-7.728a1.309 1.309 0 0 1 1.344-.671h4.535c.672 0 .841.505.5 1.008-.504.337-7.392 7.897-7.392 7.897zm17.301 1.683h-5.04l-2.517 6.72a1.189 1.189 0 0 1-1.179.839h-4.034a1.019 1.019 0 0 1-.406-.085c-.358-.235-.063-.825.072-1.09.165-.5 5.878-14.95 7.054-17.471a3.181 3.181 0 0 1 2.689-2.352h8.736c1.007 0 1.176.336 1.007.841-.168.671-1.345 3.526-1.345 3.526a1.7 1.7 0 0 1-1.847 1.345h-5.041l-1.007 2.519h4.369c.335 0 1.51 0 1.175.841-.334.672-1.344 3.359-1.344 3.359a1.461 1.461 0 0 1-1.342 1.008zm45.526 7.559c-.694.064-1.8.081-2.9.076-1.827-.009-3.657-.076-3.657-.076-1.344 0-2.351-.84-1.679-2.182l1.349-3.353a15.4 15.4 0 0 1-2.862 2.681c-.321.224-.652.441-.982.644a14.18 14.18 0 0 1-8.429 2.36 6.009 6.009 0 0 1-4.532-2.5 6.319 6.319 0 0 1-.805-4.788 13.362 13.362 0 0 1-3.9 4.115 17.741 17.741 0 0 1-2.468 1.521c-4 2.025-8.307 2.219-10.8-.053a5.733 5.733 0 0 1-.843-.962c-2.52-3.7.169-9.576 5.377-13.271a14.661 14.661 0 0 1 3.965-1.948c3.753-1.169 7.411-.488 9.145 2.114a5.432 5.432 0 0 1 .353.609 7.006 7.006 0 0 1 .5 4.539 17.187 17.187 0 0 1 4.861-5.148 11.563 11.563 0 0 1 8.712-2.43 6.226 6.226 0 0 1 4.224 2.6 5.7 5.7 0 0 1 .815 1.656 6.33 6.33 0 0 1 .266 1.83l1.942-4.829a2.376 2.376 0 0 1 2.017-1.344h5.376a4.954 4.954 0 0 1 1.5.275 5.52 5.52 0 0 1 4.07 5.912c-.007.067-.016.13-.028.2-.209 2.306-2.052 6.182-4.8 8.852a9.308 9.308 0 0 1-5.787 2.9zm25.7-13.1a1.548 1.548 0 0 1-2.182.672 11.411 11.411 0 0 0-1.491-.653 5.844 5.844 0 0 1-.7-.355c-.672-.169-2.016-.335-2.52.5-.672.841-.169 1.176 1.01 1.513.175.045.637.1 1.194.241 1.565.394 3.864 1.451 2.5 4.8a10.064 10.064 0 0 1-8.728 6.9 15.678 15.678 0 0 1-6.9-.857 1.054 1.054 0 0 1-.337-1.344c.337-.671 1.513-3.192 1.681-3.529a.878.878 0 0 1 1.342-.336 12.487 12.487 0 0 0 2.354 1.009 2.805 2.805 0 0 0 3.024-.505c.838-1.007-.5-1.344-1.679-1.68a3.828 3.828 0 0 1-3.173-2.583l-.006.011c0-.02-.007-.044-.012-.065s-.018-.05-.024-.076l.008-.015a6.156 6.156 0 0 1 .349-3.151 8.8 8.8 0 0 1 3.609-4.286l.006-.013.079-.043c.026-.015.025-.017.037-.025v.005c2.971-1.718 6.812-1.761 9.626-1.29a15.5 15.5 0 0 1 1.933.444c1.859.676-.324 3.7-.997 4.708z"/></svg>