<svg xmlns="http://www.w3.org/2000/svg" width="32.19" height="27.688" viewBox="0 0 32.19 27.688"><defs><style>.cls-1{fill:#fff;fill-rule:evenodd}</style></defs><path id="Stocks" class="cls-1" d="M1523.11 74.309l2.19.544 1.65-2.591-3.13-.778a1.457 1.457 0 1 0-.71 2.825zm28.61.419l-7.17 6.461-8.44-6.531a1.464 1.464 0 0 0-.55-.263l-1.12-.279-1.65 2.591 1.77.439 9.16 7.091a1.471 1.471 0 0 0 1.88-.069l8.09-7.28a1.462 1.462 0 0 0-1.97-2.16zm-15.75-7.095l7.86 5.032a1.464 1.464 0 0 0 1.99-.4l8.09-11.648a1.455 1.455 0 0 0-.37-2.026 1.472 1.472 0 0 0-2.04.37l-7.28 10.489-7.91-5.062a1.477 1.477 0 0 0-1.11-.2 1.422 1.422 0 0 0-.91.642l-12.06 18.927a1.456 1.456 0 0 0 .45 2.01 1.441 1.441 0 0 0 .78.227 1.464 1.464 0 0 0 1.24-.676z" transform="translate(-1522 -58.313)"/></svg>