<svg id="Layer_1" xmlns="http://www.w3.org/2000/svg" viewBox="0 0 500 281"><style>.st0{fill:#ecf0f1}.st1{fill:none;stroke:#bdc3c7;stroke-width:3;stroke-miterlimit:10}</style><path class="st0" d="M0 0h500v281H0z"/><path class="st1" d="M1.5 1.6h497v277.9H1.5z"/><path class="st1" d="M31 18.2c0 4.1-3.3 7.4-7.4 7.4-4.1 0-7.4-3.3-7.4-7.4 0-4.1 3.3-7.4 7.4-7.4 4.1 0 7.4 3.4 7.4 7.4zm0 0M55.2 18.2c0 4.1-3.3 7.4-7.4 7.4-4.1 0-7.4-3.3-7.4-7.4 0-4.1 3.3-7.4 7.4-7.4 4.1 0 7.4 3.4 7.4 7.4zm0 0M79.4 18.2c0 4.1-3.3 7.4-7.4 7.4-4.1 0-7.4-3.3-7.4-7.4 0-4.1 3.3-7.4 7.4-7.4 4.1 0 7.4 3.4 7.4 7.4zm0 0M43.1 60.7h413.8v79.8H43.1zM267.3 164.7h189.6v92H267.3zM43.1 164.7h189.7v92H43.1zM43.1 60.7l413.8 79.8M456.9 60.7L43.1 140.5M43.1 164.7l189.7 92.1M232.8 164.7L43.1 256.8M267.3 164.7l189.6 92.1M456.9 164.7l-189.6 92.1M498.5 36.5H1.5"/></svg>